<svg width="27" height="27" viewBox="0 0 27 27" fill="none" xmlns="http://www.w3.org/2000/svg">
<path d="M16.0714 6.27857H15.9214V6.42857V10.1357H13.5429V6.42857V6.27857H13.3929H9.525V4.00714H13.3929H13.5429V3.85714V0.15H15.9214V3.85714V4.00714H16.0714H19.9393V6.27857H16.0714ZM9.50893 15.2786H9.42199L9.37878 15.354L7.90556 17.9254L7.7769 18.15H8.03571H23.9571V20.4214H8.03571C6.10593 20.4214 4.90623 18.4422 5.82214 16.8274C5.82224 16.8272 5.82233 16.8271 5.82242 16.8269L7.62996 13.6906L7.67 13.6212L7.63448 13.5493L2.81305 3.7907L2.77177 3.70714H2.67857H0.15V1.43571H4.28618L9.95028 12.9235L9.99154 13.0071H10.0848H19.4866H19.5733L19.6166 12.932L24.7274 4.05746L26.7927 5.15137L21.7002 14.0297L21.7001 14.0299C21.272 14.7793 20.4384 15.2786 19.4866 15.2786H9.50893ZM5.52054 24.4286C5.52054 23.1019 6.64051 22.0071 8.03571 22.0071C9.43192 22.0071 10.5643 23.1028 10.5643 24.4286C10.5643 25.7543 9.43192 26.85 8.03571 26.85C6.64051 26.85 5.52054 25.7553 5.52054 24.4286ZM18.9134 24.4286C18.9134 23.1019 20.0334 22.0071 21.4286 22.0071C22.8248 22.0071 23.9571 23.1028 23.9571 24.4286C23.9571 25.7543 22.8248 26.85 21.4286 26.85C20.0334 26.85 18.9134 25.7553 18.9134 24.4286Z" fill="white" stroke="#61AD00" stroke-width="0.3"/>
</svg>
