<svg width="28" height="27" viewBox="0 0 28 27" fill="none" xmlns="http://www.w3.org/2000/svg">
<path d="M17.3756 8.85005L17.2021 8.68268L17.0285 8.85005L2.93713 22.4401L2.86068 22.5138V22.62V24V24.25H3.11068H4.54159H4.6425L4.71514 24.1799L18.8065 10.5899L18.9931 10.41L18.8065 10.2301L17.3756 8.85005ZM21.8861 0.614949C22.1324 0.377409 22.4735 0.25 22.8013 0.25C23.1479 0.25 23.4723 0.36451 23.732 0.614949L27.3715 4.12495C27.8762 4.61164 27.8762 5.39336 27.3715 5.88005L24.6988 8.45768L19.2264 3.18L21.8861 0.614949ZM17.2021 5.13232L22.6744 10.41L5.73161 26.75H0.25V21.4812L17.2021 5.13232Z" fill="white" stroke="#1276D2" stroke-width="0.5"/>
</svg>
